<?xml version="1.0" standalone="no"?>
<!DOCTYPE svg PUBLIC "-//W3C//DTD SVG 20010904//EN"
 "http://www.w3.org/TR/2001/REC-SVG-20010904/DTD/svg10.dtd">
<svg version="1.0" xmlns="http://www.w3.org/2000/svg"
 width="481.000000pt" height="282.000000pt" viewBox="0 0 481.000000 282.000000"
 preserveAspectRatio="xMidYMid meet">

<g transform="translate(0.000000,282.000000) scale(0.100000,-0.100000)"
fill="#000000" stroke="none">
<path d="M1900 2799 c-41 -5 -118 -13 -170 -19 -159 -18 -203 -51 -286 -212
-34 -65 -63 -107 -98 -138 -161 -146 -176 -175 -159 -308 11 -89 3 -126 -35
-158 -22 -18 -24 -26 -19 -63 20 -151 203 -330 377 -370 49 -11 192 -14 228
-5 18 5 22 13 22 50 0 49 -1 50 -78 33 -138 -29 -346 82 -425 229 l-28 52 23
33 c21 29 23 43 24 157 0 69 3 135 7 146 4 12 48 59 98 104 77 71 96 95 134
170 53 106 87 148 140 171 42 19 423 66 450 55 11 -4 13 -16 9 -49 -20 -142
112 -240 296 -221 60 6 68 10 105 50 23 24 49 44 59 44 9 0 38 -14 64 -32 52
-36 122 -47 187 -29 76 21 127 -35 159 -176 10 -43 38 -120 63 -172 40 -84 56
-105 154 -202 77 -75 116 -122 130 -156 34 -77 54 -93 115 -93 29 0 74 7 100
16 25 8 50 12 54 7 16 -18 -14 -78 -66 -130 -51 -51 -54 -57 -40 -72 9 -10 16
-30 16 -45 l0 -27 43 30 c54 37 105 94 123 137 14 34 19 130 8 159 -16 42 -99
56 -174 30 -62 -22 -67 -20 -90 33 -15 34 -53 80 -128 154 -146 145 -183 210
-238 422 -14 55 -27 79 -65 120 l-47 51 -108 0 c-105 1 -111 2 -158 33 -83 53
-184 39 -231 -32 -23 -35 -71 -42 -139 -21 -82 26 -101 51 -101 136 0 65 -2
73 -28 95 -25 22 -37 24 -115 23 -48 -1 -121 -5 -162 -10z"/>
<path d="M2824 1596 c-38 -38 -43 -70 -19 -116 40 -78 160 -78 200 0 41 78
-10 150 -106 150 -33 0 -47 -6 -75 -34z"/>
<path d="M1840 1065 l0 -525 85 0 85 0 0 47 0 47 28 -27 c100 -96 308 -100
442 -9 193 131 216 440 44 602 -64 60 -118 86 -205 99 -104 14 -200 -8 -274
-65 l-35 -26 0 191 0 191 -85 0 -85 0 0 -525z m488 70 c101 -43 152 -161 122
-285 -13 -56 -62 -120 -109 -145 -47 -24 -115 -28 -174 -11 -193 56 -212 360
-27 440 46 20 141 20 188 1z"/>
<path d="M2092 1471 l0 -108 42 12 41 12 3 62 c3 59 1 64 -32 97 -18 18 -39
34 -45 34 -6 0 -10 -39 -9 -109z"/>
<path d="M450 1540 c-253 -39 -424 -217 -446 -463 -12 -148 39 -291 141 -393
105 -106 229 -154 395 -154 159 0 268 41 374 141 285 266 163 748 -214 852
-72 20 -181 27 -250 17z m247 -193 c66 -34 115 -83 151 -150 25 -48 27 -61 27
-162 0 -100 -2 -115 -27 -160 -34 -66 -111 -137 -173 -161 -73 -28 -223 -27
-287 3 -66 30 -129 92 -164 160 -26 53 -29 67 -29 158 0 89 3 106 28 157 34
70 109 140 180 168 78 30 222 24 294 -13z"/>
<path d="M4176 1521 c-3 -5 -104 -228 -225 -495 l-219 -486 97 0 96 0 49 115
48 115 248 0 247 0 49 -115 48 -115 97 0 98 0 -69 153 c-38 83 -138 305 -223
492 l-153 340 -91 3 c-50 1 -94 -2 -97 -7z m188 -396 c47 -109 86 -203 86
-207 0 -10 -360 -11 -360 0 -1 20 175 421 181 414 4 -4 46 -97 93 -207z"/>
<path d="M3250 1375 l0 -85 -60 0 -60 0 0 -70 0 -70 60 0 60 0 0 -206 c0 -115
5 -224 11 -248 14 -55 59 -110 111 -137 56 -29 160 -36 230 -15 77 22 82 31
55 100 -19 49 -25 56 -42 50 -11 -4 -44 -9 -72 -11 -48 -4 -55 -2 -83 25 l-30
30 0 206 0 206 100 0 100 0 0 70 0 70 -100 0 -100 0 0 85 0 85 -90 0 -90 0 0
-85z"/>
<path d="M1624 1300 c-65 -10 -132 -40 -164 -75 l-25 -27 -5 49 -5 48 -82 3
-83 3 0 -381 0 -380 84 0 84 0 4 223 c3 205 5 225 25 263 40 75 107 114 196
114 l37 0 0 85 c0 47 -3 84 -7 84 -5 -1 -31 -5 -59 -9z"/>
<path d="M2820 920 l0 -380 85 0 85 0 0 380 0 380 -85 0 -85 0 0 -380z"/>
<path d="M3522 878 c-15 -15 -16 -90 0 -106 9 -9 20 -5 47 15 23 18 33 21 28
11 -5 -13 3 -17 44 -20 l49 -3 0 35 c0 20 -7 46 -16 58 -13 19 -24 22 -78 22
-35 0 -67 -5 -74 -12z"/>
<path d="M3140 778 c-74 -58 -70 -50 -70 -150 l1 -93 23 48 c13 27 36 61 51
77 23 24 26 34 23 83 l-3 55 -25 -20z"/>
<path d="M3285 477 c10 -46 32 -85 54 -97 11 -5 40 -10 65 -10 36 0 52 6 81
31 19 17 35 35 35 39 0 4 -33 9 -74 12 -54 4 -85 12 -120 31 l-47 26 6 -32z"/>
<path d="M2270 441 c0 -5 7 -26 16 -47 10 -24 20 -84 24 -155 8 -138 25 -175
96 -209 39 -20 57 -22 147 -18 86 3 111 9 160 32 80 39 150 97 204 169 40 55
93 147 93 162 0 3 -22 5 -50 5 l-50 0 -40 -64 c-66 -104 -160 -179 -266 -211
-63 -19 -84 -19 -134 1 -54 22 -66 50 -75 169 -4 55 -11 117 -16 138 -10 37
-10 37 -59 37 -28 0 -50 -4 -50 -9z"/>
</g>
</svg>
