<?xml version="1.0" encoding="UTF-8"?>
<svg version="1.1" xmlns="http://www.w3.org/2000/svg" width="481" height="282">
<path d="M0 0 C10.74293426 8.83143285 17.50074275 19.49270546 19.46875 33.28515625 C20.80514074 46.99834763 19.13118382 60.46080828 10.6875 71.6875 C9.47392209 73.13818452 8.24528337 74.57643888 7 76 C6.24976562 76.92619141 6.24976562 76.92619141 5.484375 77.87109375 C-3.05950506 87.5584729 -17.23113401 92.26773562 -29.7421875 93.3125 C-45.43808217 94.00854854 -59.84419493 90.09318029 -72.26953125 80.19140625 C-81.87862381 71.35398078 -87.55347968 59.49781919 -88.3125 46.54296875 C-88.85248195 31.58591999 -85.94487615 18.57152105 -76.1875 6.81640625 C-56.51067856 -14.16955855 -23.22898846 -15.50542266 0 0 Z M-62 20 C-67.92854734 28.6452951 -70.04471635 37.55885994 -68.5859375 47.94921875 C-66.38345422 57.46235438 -61.16979703 65.55346865 -53 71 C-48.18940464 73.6239611 -43.4998975 75.53192362 -38 76 C-36.824375 76.103125 -35.64875 76.20625 -34.4375 76.3125 C-24.37310231 76.08157692 -16.1756774 72.38772548 -9.09375 65.36328125 C-1.93959863 57.28816636 0.49821571 49.53430438 0.24609375 38.796875 C-0.55498202 29.69258528 -4.18398054 21.48320511 -10.921875 15.2109375 C-26.97251552 2.58194515 -48.68935616 4.20690927 -62 20 Z " fill="#FFFFFF" transform="translate(88,137)"/>
<path d="M0 0 C2.81760689 2.81760689 2.26606206 5.60281011 2.3125 9.375 C2.30766602 10.38433594 2.30766602 10.38433594 2.30273438 11.4140625 C2.41695142 15.15743397 2.69561753 16.69159928 5.3671875 19.3984375 C10.86271839 22.74141623 15.67793685 23.70245146 22 23 C24.81268079 20.77069744 24.81268079 20.77069744 27 18 C31.37889513 14.39385107 35.02293627 13.6616879 40.58203125 13.70703125 C45.71830378 14.32935829 49.77837512 17.18558341 54 20 C56.03116254 20.21041257 56.03116254 20.21041257 58.23828125 20.0546875 C59.05876953 20.03019531 59.87925781 20.00570313 60.72460938 19.98046875 C62.43850833 19.91061928 64.15209551 19.83260268 65.86523438 19.74609375 C71.49352657 19.59647535 74.51857389 20.24968268 79 24 C79.85271484 24.67289063 79.85271484 24.67289063 80.72265625 25.359375 C85.96355208 30.79890537 87.36952841 37.91729336 89.39550781 44.97070312 C93.72955348 59.52021347 100.40760035 71.29196369 111.9453125 81.21875 C117.62196059 86.13995062 122.46175507 90.74787163 125 98 C125 98.99 125 99.98 125 101 C126.051875 100.505 127.10375 100.01 128.1875 99.5 C134.0137498 97.33596436 139.87510692 97.19580316 146 98 C149.3125 99.6875 149.3125 99.6875 151 103 C152.3436032 110.84834886 151.44064096 117.13169335 146.9140625 123.70703125 C142.38535886 129.13223337 137.73888758 133.63132247 131 136 C130.87625 134.9275 130.7525 133.855 130.625 132.75 C130.09222278 129.55333667 129.50162508 127.75908348 128 125 C128.60328125 124.52691406 129.2065625 124.05382812 129.828125 123.56640625 C135.43302811 118.92880093 138.70695026 114.92725516 141 108 C140.39414062 108.2165625 139.78828125 108.433125 139.1640625 108.65625 C133.12225226 110.66399002 127.37033647 112.13519837 121 111 C115.74244592 107.98177451 114.32353994 104.80149658 112.10546875 99.32421875 C109.24155672 93.3029196 104.11415084 89.06567362 99.125 84.8125 C86.56384297 73.68526501 80.73598531 59.21805768 76.87402344 43.22973633 C75.71053005 38.64961144 74.45382339 35.42074079 71 32 C67.35814676 30.9594705 65.60702852 30.79765716 62 32 C54.33387615 33.00769348 49.55249729 31.83725557 43.2890625 27.3125 C40.57679411 25.7573427 39.07781352 25.5233699 36 26 C34.26776336 27.94348501 32.60118397 29.94720004 31 32 C27.31441694 34.64133453 23.1716565 34.34564588 18.8125 34.3125 C18.05018066 34.30686035 17.28786133 34.3012207 16.50244141 34.29541016 C7.87920172 34.10950894 1.93490402 32.38200711 -4.58984375 26.59765625 C-8.17083895 22.54051765 -8.22376455 19.08328597 -8.125 13.75 C-8.10695313 12.48671875 -8.08890625 11.2234375 -8.0703125 9.921875 C-8.04710937 8.95765625 -8.02390625 7.9934375 -8 7 C-13.12367515 7.52568172 -18.24648068 8.05898574 -23.36865234 8.59912109 C-25.10834681 8.78151623 -26.84825454 8.96188968 -28.58837891 9.14013672 C-31.10118555 9.3978974 -33.61311485 9.66311359 -36.125 9.9296875 C-37.27705933 10.04544632 -37.27705933 10.04544632 -38.45239258 10.1635437 C-46.29394877 11.01037117 -54.34825135 11.93828373 -59.87890625 18.08984375 C-61.98694255 20.98208508 -63.5210089 23.82924602 -65.09399414 27.02783203 C-69.0285571 35.02345428 -73.09730141 41.20709924 -80 47 C-81.48045868 48.26932797 -82.95968986 49.54008946 -84.4375 50.8125 C-85.07558594 51.33457031 -85.71367187 51.85664062 -86.37109375 52.39453125 C-88.80436135 54.7927878 -89.91705808 56.91532277 -90.17944336 60.34667969 C-90.13509155 61.62140137 -90.13509155 61.62140137 -90.08984375 62.921875 C-90.05987305 64.33726563 -90.05987305 64.33726563 -90.02929688 65.78125 C-89.96857776 67.74493216 -89.90354294 69.70848608 -89.83398438 71.671875 C-89.71055736 77.93686005 -90.47881854 82.26257453 -93 88 C-94.05816813 91.26194815 -94.05816813 91.26194815 -92.91796875 94.515625 C-86.0572533 105.35648462 -77.45499285 112.43039287 -65 116 C-57.5413173 117.24893633 -50.45313936 117.13691956 -43 116 C-43 119.63 -43 123.26 -43 127 C-56.95809382 129.79161876 -70.84216905 128.16629966 -83.203125 120.9140625 C-94.40646534 113.24697205 -102.36414145 103.94622249 -107 91 C-107.4375 87.5 -107.4375 87.5 -107 84 C-105.33333333 82.33333333 -103.66666667 80.66666667 -102 79 C-100.78778841 72.51607754 -100.9759508 66.18641195 -101.30273438 59.62304688 C-101.43610422 53.84862662 -100.36068857 50.73239819 -97 46 C-94.59765625 43.48828125 -94.59765625 43.48828125 -92.0625 41.3125 C-91.22847656 40.58675781 -90.39445312 39.86101563 -89.53515625 39.11328125 C-87 37 -87 37 -84.51953125 35.33984375 C-80.8112239 31.89600483 -78.90726488 27.72323917 -76.625 23.25 C-71.83467782 13.86431061 -67.20339468 5.28899103 -56.7578125 1.734375 C-43.10955021 -1.90000646 -12.19204199 -8.68445279 0 0 Z " fill="#FFFFFF" transform="translate(219,3)"/>
<path d="M0 0 C6.27 0 12.54 0 19 0 C19 12.21 19 24.42 19 37 C22.3 35.02 25.6 33.04 29 31 C37.68611336 27.32510588 48.87623744 27.84966004 57.69921875 30.96875 C67.15604142 35.20746169 75.22438811 42.24113022 79.5 51.8125 C82.82769776 62.34525763 82.86374157 76.54434573 78.3203125 86.6796875 C72.6274569 96.68429172 65.41686244 102.88607561 54.43505859 106.39355469 C50.4498681 107.38605651 46.59078015 107.48891463 42.5 107.4375 C41.25162354 107.42831543 41.25162354 107.42831543 39.97802734 107.41894531 C31.32648003 107.19802582 25.46469229 104.83907691 19 99 C18.67 101.64 18.34 104.28 18 107 C12.06 107 6.12 107 0 107 C0 71.69 0 36.38 0 0 Z M22.19140625 54.12109375 C18.04494032 60.66027445 18.32750593 67.48338905 19 75 C20.63211433 81.20594371 24.69395906 85.53618117 30 89 C36.16211697 91.96392734 43.0920397 92.25968735 49.60546875 90.16015625 C55.23040716 87.36182006 58.35349865 83.64744485 61 78 C63.16798741 71.49603778 63.30781164 62.81713886 60.4375 56.5 C57.43201896 51.55104536 53.31411495 48.10675063 48.125 45.625 C37.61725981 43.52345196 29.10714474 45.62911857 22.19140625 54.12109375 Z " fill="#FFFFFF" transform="translate(183,122)"/>
<path d="M0 0 C6.6 0 13.2 0 20 0 C21.61841797 3.60035156 21.61841797 3.60035156 23.26953125 7.2734375 C24.78361709 10.64073164 26.29803813 14.00787497 27.8125 17.375 C28.21038727 18.25969971 28.60827454 19.14439941 29.01821899 20.0559082 C33.72698006 30.52436406 38.44368021 40.98915157 43.1796875 51.4453125 C43.6009642 52.37556244 44.02224091 53.30581238 44.45628357 54.26425171 C46.48280174 58.73852771 48.51062153 63.21220773 50.5402832 67.68505859 C54.07263404 75.47500469 57.59025755 83.27159114 61.05078125 91.09375 C61.50084785 92.10097107 61.50084785 92.10097107 61.96000671 93.12854004 C64 97.76821756 64 97.76821756 64 100 C57.4 100 50.8 100 44 100 C35 82.2 35 82.2 35 78 C18.5 78 2 78 -15 78 C-15.99 80.97 -16.98 83.94 -18 87 C-19.89317664 91.38977453 -21.95278361 95.67809874 -24 100 C-30.6 100 -37.2 100 -44 100 C-42.08387148 94.25161444 -40.20472732 88.91754941 -37.6640625 83.484375 C-37.19077011 82.45657928 -37.19077011 82.45657928 -36.70791626 81.40802002 C-36.03372897 79.94507578 -35.35748468 78.48307797 -34.67932129 77.02197266 C-32.86769109 73.11806376 -31.07199228 69.2068202 -29.2734375 65.296875 C-28.72852661 64.11405945 -28.72852661 64.11405945 -28.17260742 62.90734863 C-24.81985091 55.62498086 -21.52343787 48.31831006 -18.25 41 C-17.73300537 39.84443604 -17.21601074 38.68887207 -16.68334961 37.49829102 C-11.10212823 25.00782088 -5.54791203 12.5052936 0 0 Z M9 22 C6.57661933 27.53487709 4.15560448 33.07078038 1.73681641 38.60766602 C0.91292909 40.49271891 0.08838576 42.37748522 -0.73681641 44.26196289 C-1.92000464 46.96426254 -3.10086159 49.66757016 -4.28125 52.37109375 C-4.65310425 53.21900986 -5.0249585 54.06692596 -5.40808105 54.9405365 C-5.74843384 55.72127029 -6.08878662 56.50200409 -6.43945312 57.30639648 C-6.7414563 57.99700668 -7.04345947 58.68761688 -7.35461426 59.39915466 C-8.06231839 60.86690345 -8.06231839 60.86690345 -8 62 C3.55 62 15.1 62 27 62 C25.10337865 56.31013595 23.20074643 50.83096301 20.86328125 45.33984375 C20.57897751 44.66450089 20.29467377 43.98915802 20.00175476 43.29335022 C19.10846817 41.17339551 18.21058223 39.05542689 17.3125 36.9375 C16.69956186 35.48515596 16.08692914 34.03268298 15.47460938 32.58007812 C13.98659023 29.05188891 12.49444799 25.52547065 11 22 C10.34 22 9.68 22 9 22 Z " fill="#FFFFFF" transform="translate(417,128)"/>
<path d="M0 0 C5.94 0 11.88 0 18 0 C18 5.61 18 11.22 18 17 C24.6 17 31.2 17 38 17 C38 22.28 38 27.56 38 33 C31.4 33 24.8 33 18 33 C18.0740806 38.32103084 18.15697972 43.64040518 18.26245117 48.96069336 C18.29565114 50.76952458 18.32369841 52.57845818 18.34643555 54.38745117 C18.38007258 56.99181633 18.43239195 59.5952476 18.48828125 62.19921875 C18.49467117 63.00461594 18.5010611 63.81001312 18.50764465 64.63981628 C18.62696816 69.22373924 19.03467305 72.28339276 22 76 C25.74594875 78.49729916 27.55155657 78.2965629 32 78 C34.39829117 77.45980238 36.65807395 76.76471055 39 76 C40.65 80.29 42.3 84.58 44 89 C35.44378577 94.89428091 27.10229698 94.83370731 17 94 C10.89225803 92.66944204 7.09154974 89.66797134 3.19140625 84.87890625 C-0.38589748 79.23732233 -0.2652587 74.1629 -0.1953125 67.66796875 C-0.1924826 66.67622147 -0.18965271 65.68447418 -0.18673706 64.66267395 C-0.17556804 61.50415841 -0.15046927 58.34592943 -0.125 55.1875 C-0.11496597 53.04232181 -0.10584086 50.89713917 -0.09765625 48.75195312 C-0.07563939 43.50119216 -0.0411319 38.25064462 0 33 C-4.29 33 -8.58 33 -13 33 C-13 27.72 -13 22.44 -13 17 C-8.71 17 -4.42 17 0 17 C0 11.39 0 5.78 0 0 Z " fill="#FFFFFF" transform="translate(325,135)"/>
<path d="M0 0 C0 5.94 0 11.88 0 18 C-2.784375 18.1546875 -2.784375 18.1546875 -5.625 18.3125 C-12.22989037 18.88683829 -16.03249445 19.98777841 -20.75 24.8125 C-25.14669027 31.04114455 -25.32264149 36.83883321 -25.4140625 44.2109375 C-25.43342865 45.17907379 -25.4527948 46.14721008 -25.4727478 47.14468384 C-25.5322833 50.2213677 -25.5788247 53.29808951 -25.625 56.375 C-25.66320373 58.46746377 -25.70225685 60.55991222 -25.7421875 62.65234375 C-25.8395541 67.76814713 -25.91932958 72.88379734 -26 78 C-32.27 78 -38.54 78 -45 78 C-45 52.59 -45 27.18 -45 1 C-39.06 1 -33.12 1 -27 1 C-26.67 3.64 -26.34 6.28 -26 9 C-25.154375 8.236875 -24.30875 7.47375 -23.4375 6.6875 C-16.19871954 0.66087381 -9.14032689 0 0 0 Z " fill="#FFFFFF" transform="translate(170,151)"/>
<path d="M0 0 C6.27 0 12.54 0 19 0 C19 25.41 19 50.82 19 77 C12.73 77 6.46 77 0 77 C0 51.59 0 26.18 0 0 Z " fill="#FFFFFF" transform="translate(281,152)"/>
<path d="M0 0 C2.85863109 6.68281045 3.4423246 12.18068918 3.52734375 19.37695312 C3.6799096 24.62252619 4.53512846 28.33477973 7 33 C11.0969515 35.77146719 16.22374764 35.60747248 21 35 C32.22659345 31.89814686 41.03703491 25.2115841 48 16 C48.78619237 14.50799276 49.55828729 13.00842541 50.3125 11.5 C51.4453125 9.52734375 51.4453125 9.52734375 53 8 C55.92782701 7.25310536 58.55644546 7.06374138 61.57421875 7.03515625 C64.01098677 7.17542548 64.01098677 7.17542548 66 6 C61.78889132 20.13578189 51.47108286 33.12238529 38.796875 40.52734375 C28.15969972 46.1282028 16.62790888 48.49699333 4.828125 45.08203125 C-0.26631835 42.75335818 -3.56466809 40.1883158 -6 35 C-6.88835248 30.85231291 -7.14058098 26.79939057 -7.29125977 22.57763672 C-7.5639123 14.99900902 -8.1538118 8.12442077 -11 1 C-7.24725989 0.18807837 -3.84545686 -0.08942923 0 0 Z " fill="#FFFFFF" transform="translate(237,236)"/>
<path d="M0 0 C2.6875 1.6875 2.6875 1.6875 4.6875 4.6875 C5.39957438 9.57266144 5.41602643 13.4975735 2.8125 17.75 C-1.10513584 21.32196209 -4.47151037 21.01411199 -9.60546875 20.98046875 C-13.19693175 20.59178228 -14.94290824 19.37303733 -17.3125 16.6875 C-19.05598951 13.20052098 -18.89332725 9.49159937 -18.3125 5.6875 C-14.35924144 -1.70005654 -7.51513503 -2.97769501 0 0 Z " fill="#FFFFFF" transform="translate(297.3125,119.3125)"/>
<path d="M0 0 C3.1875 1.9375 3.1875 1.9375 5 5 C5.37748199 8.05046253 5.29943493 10.94576369 5 14 C4.01 13.67 3.02 13.34 2 13 C-3.04936467 12.70901966 -8.08614397 12.68963839 -13 14 C-15.33012265 10.35918336 -15.46369995 7.25058287 -15 3 C-10.74952357 -1.25047643 -5.63357792 -0.8583706 0 0 Z " fill="#FFFFFF" transform="translate(365,192)"/>
<path d="M0 0 C0.54785156 0.33773437 1.09570312 0.67546875 1.66015625 1.0234375 C9.31236064 5.32858014 16.36972138 6.22902844 25 7 C23.0338775 11.34185387 20.28764485 13.85617758 16 16 C11.26822808 16.39431433 8.90599278 16.45299639 4.625 14.3125 C1.80496044 11.82817944 0.84279294 10.62400965 0 7 C-0.07646165 4.6679198 -0.09143299 2.33154122 0 0 Z " fill="#FFFFFF" transform="translate(328,230)"/>
<path d="M0 0 C4.76014029 1.90405611 7.80277465 3.35938712 10 8 C10.54178145 12.31598933 10.98484289 17.03031423 9 21 C6.03 21.66 3.06 22.32 0 23 C0 15.41 0 7.82 0 0 Z " fill="#FFFFFF" transform="translate(209,123)"/>
<path d="M0 0 C0.30341425 2.0788382 0.5666325 4.163573 0.8125 6.25 C0.96332031 7.41015625 1.11414063 8.5703125 1.26953125 9.765625 C1 13 1 13 -1.3125 15.03125 C-2.199375 15.6809375 -3.08625 16.330625 -4 17 C-5.64815868 19.9958867 -5.64815868 19.9958867 -6.8125 23.25 C-7.23144531 24.32765625 -7.65039062 25.4053125 -8.08203125 26.515625 C-8.38496094 27.33546875 -8.68789063 28.1553125 -9 29 C-9.33 29 -9.66 29 -10 29 C-10.26260373 25.29302295 -10.42156838 21.58843642 -10.5625 17.875 C-10.63791016 16.82828125 -10.71332031 15.7815625 -10.79101562 14.703125 C-10.88042172 11.56397784 -10.84418452 9.02969065 -10 6 C-7.58542153 3.49794957 -3.72378962 0 0 0 Z " fill="#FFFFFF" transform="translate(317,202)"/>
<path d="M0 0 C0.33 0.66 0.66 1.32 1 2 C0.34 2.66 -0.32 3.32 -1 4 C-0.67 2.68 -0.34 1.36 0 0 Z " fill="#FFFFFF" transform="translate(306,232)"/>
<path d="" fill="#FFFFFF" transform="translate(0,0)"/>
</svg>
